# xmcd
#
# Track frame offsets:
#	150
#	20430
#	34658
#	45056
#	54601
#	68059
#	75655
#	90498
#	100398
#	112436
#	123884
#	137690
#	149205
#
# Disc length: 2141 seconds
# Revision: 0
# Processed by: cddbd v1.5.2PL0 Copyright (c) Steve Scherf et al.
# Submitted via: dBpowerAMP V12.0
#
DISCID=b1085b0d
DTITLE=Bo Diddley - Bo Diddley
DYEAR=1962
DGENRE=Blues
TTITLE0=I Can Tell
TTITLE1=Mr. Khrushchev
TTITLE2=Diddling
TTITLE3=Give Me a Break
TTITLE4=Who May Your Lover Be
TTITLE5=Bo's Bounce
TTITLE6=You Can't Judge a Book by the Cover
TTITLE7=Babes in the Woods
TTITLE8=Sad Sack
TTITLE9=Mama Don't Allow No Twistin'
TTITLE10=You All Green
TTITLE11=Bo's Twist
TTITLE12=We're Gonna Get Married [Bonus Track]
EXTD=
EXTT0=
EXTT1=
EXTT2=
EXTT3=
EXTT4=
EXTT5=
EXTT6=
EXTT7=
EXTT8=
EXTT9=
EXTT10=
EXTT11=
EXTT12=
PLAYORDER=
